<?xml version="1.0" encoding="utf-8"?>
<!-- Generator: Adobe Illustrator 21.1.0, SVG Export Plug-In . SVG Version: 6.00 Build 0)  -->
<svg version="1.1" id="Layer_1" xmlns="http://www.w3.org/2000/svg" xmlns:xlink="http://www.w3.org/1999/xlink" x="0px" y="0px"
	 width="190px" height="117.6px" viewBox="0 0 190 117.6" style="enable-background:new 0 0 190 117.6;" xml:space="preserve">
<style type="text/css">
	.st0{clip-path:url(#SVGID_2_);}
	.st1{fill:#8B7566;}
	.st2{fill:none;stroke:#7C5C47;stroke-width:2.984;stroke-miterlimit:10;}
</style>
<g>
	<defs>
		<polygon id="SVGID_1_" points="190,71 161.2,59.7 90.8,51.2 67.1,53.1 32.6,57.5 0,69.1 22.1,116.2 171.9,113.7 		"/>
	</defs>
	<clipPath id="SVGID_2_">
		<use xlink:href="#SVGID_1_"  style="overflow:visible;"/>
	</clipPath>
	<g class="st0">
		<path class="st1" d="M71.2,63.4c-3.9,0.3-6.7,3.5-6.4,7.3c0.3,3.8,3.5,6.7,7.4,6.4c3.9-0.3,6.8-3.6,6.5-7.4
			C78.4,65.9,75.1,63.1,71.2,63.4z"/>
		<path class="st1" d="M169.4,63.7l0-1.1l0-15.2c0-22,0-25.2,0.1-55.1c0-1.9-0.1-3.7-0.2-5.2l-1.5-0.1c-4.4-0.3-8.9-0.6-13.2-0.7
			c-10.1-0.2-19.7-1.8-27.8-3.3c-9.2-1.7-21-4.7-31.4-12.5c-7.1,4.7-10.6,6.7-18,8.9c-5.5,1.6-11.1,2.8-16.4,3.9
			c-10.5,2.2-21.2,2.6-31.5,3l-3.4,0.1c-1.5,0.1-3.1,0.2-4.6,0.3c-0.1,2.1-0.2,4-0.2,5.9c-0.1,28.1-0.1,28.7-0.1,49.9l0,19.2
			c0,0.6,0,1.2,0,1.7c0,1.3,0,2.5,0.1,3.5c0.2,2,0.5,4,1,5.8c1.4,4.7,4.7,8.4,9.9,11.2c4.4,2.4,9.2,3.8,14.7,4.4l2.9,0.3
			c4.5,0.5,9.1,1,13.7,1.8c11.3,1.9,21.1,6.6,29.1,13.9c0.7,0.6,1.4,1.3,2,1.9l0.1,0.1c0.1,0.1,0.3,0.3,0.4,0.4
			c9.5-9.7,21.7-15.3,36.2-16.8c4.7-0.5,9.3-1,13.8-1.6c6-0.9,11-2.7,15.2-5.4c5.5-3.6,8.4-8.5,8.8-15.1
			C169.5,66.7,169.5,65.3,169.4,63.7z M54.3,81.5c-1.2,0.2-2.3-0.6-2.4-1.7c-0.1-1.1,0.7-2.1,1.9-2.3c1.2-0.2,2.3,0.6,2.5,1.7
			C56.3,80.3,55.5,81.3,54.3,81.5z M72.4,79.8c-5.7,0.4-10.5-3.5-10.9-8.9c-0.4-5.3,3.8-9.9,9.5-10.3c5.7-0.4,10.6,3.5,10.9,8.8
			C82.4,74.8,78.1,79.4,72.4,79.8z M104.1,78.5l-3.8-7l-6.5-0.1l-0.1,7l-3.1,0l0.1-18.2l10,0.1c2.4,0,4.1,0.7,5.2,2
			c0.9,1,1.4,2.3,1.4,3.7c0,2.4-1.6,4.3-4,5.2l4.3,7.4L104.1,78.5z M124.4,77.4c1.9,0.2,4.1-0.2,5.4-1l0.3-3.6l-5.7-0.5l0.2-2.8
			l8.5,0.7l-0.6,7.9c-2.4,1.5-5.7,2.3-8.6,2c-5.7-0.5-9.7-5.1-9.2-10.4s5.1-9.2,10.6-8.8c2.9,0.2,5.9,1.6,8.2,3.9l-2.3,1.8
			c-1.4-1.6-3.9-2.8-6-2.9c-3.9-0.3-6.9,2.6-7.2,6.3C117.7,73.5,119.9,77,124.4,77.4z"/>
		<path class="st1" d="M104.3,65.9c0-0.7-0.3-1.3-0.7-1.8c-0.9-0.9-1.9-1-2.8-1L93.8,63l0,5.6l7.5,0.1
			C102.9,68.7,104.3,67.4,104.3,65.9z"/>
	</g>
	<g class="st0">
		<path class="st1" d="M175.2,62.6c0.1-35.6,0.1-34.6,0.1-70.3c0-2.3-0.1-4.7-0.3-7c-0.1-1.8-2-3.7-3.9-3.8
			c-5.5-0.4-10.9-0.8-16.4-0.9c-9.1-0.2-18-1.5-26.8-3.2c-10.8-2-21.3-5.3-30.1-12.4c-0.6-0.5-1.4-0.6-2.8-1.1
			c-9.5,6.3-12.1,7.9-19.1,10c-5.2,1.5-10.6,2.7-16,3.8c-11.2,2.3-22.5,2.6-33.9,3c-2.3,0.1-4.7,0.3-7,0.6c-1.3,0.1-2.9,1.9-3,3.2
			c-0.1,2.7-0.3,5.5-0.3,8.2c-0.1,35.3-0.1,33.9-0.1,69.1c0,2-0.1,3.9,0.1,5.9c0.2,2.3,0.6,4.7,1.2,6.9c2,6.8,6.7,11.4,12.8,14.6
			c5.2,2.8,10.9,4.4,16.8,5.1c5.4,0.6,10.9,1.2,16.3,2.1c9.9,1.6,18.7,5.7,26.1,12.5c1.7,1.6,3.3,3.3,5.1,4.8
			c0.5,0.4,1.6,0.5,2.1,0.2c1-0.5,1.9-1.4,2.7-2.2c9.1-9.5,20.3-14.4,33.2-15.7c4.7-0.5,9.3-1,14-1.7c6.3-0.9,12.2-2.8,17.5-6.3
			c7-4.6,10.8-11.1,11.4-19.5C175.3,66.5,175.2,64.6,175.2,62.6z M171.3,68.2c-0.5,7.2-3.7,12.6-9.7,16.6c-4.5,2.9-9.7,4.8-16,5.7
			c-4.5,0.7-9.1,1.2-13.8,1.7c-14.4,1.5-26.4,7.2-35.6,16.9l-0.7,0.7l-0.8-0.6c-0.4-0.3-0.7-0.7-1.1-1.1l-0.1-0.1
			c-0.7-0.6-1.3-1.3-2-1.9C83.8,99,74.4,94.5,63.5,92.7c-4.5-0.8-9.1-1.3-13.6-1.8L47,90.6c-5.7-0.6-10.7-2.2-15.4-4.6
			c-5.8-3.1-9.3-7.1-10.9-12.3c-0.6-2-0.9-4.1-1.1-6.2c-0.1-1.2-0.1-2.4-0.1-3.8c0-0.6,0-1.1,0-1.7l0-19.2c0-21.2,0-21.8,0.1-49.9
			c0-2.2,0.1-4.4,0.2-6.8l0-0.8l0.8-0.1c1.7-0.2,3.6-0.4,5.5-0.4l3.4-0.1c10.2-0.4,20.8-0.8,31.2-3c5.2-1.1,10.8-2.3,16.3-3.9
			c6.9-2,10.2-3.9,18-9l0.6-0.4l0.5,0.4c10.2,7.9,22,10.9,31.1,12.6c8,1.5,17.5,3.1,27.4,3.2c4.4,0.1,8.9,0.4,13.3,0.7l3.2,0.2
			l0,0.8c0.1,1.5,0.2,3.8,0.2,6.1c0,29.8,0,33.1-0.1,55.1l0,15.2l0,1.1C171.4,65.3,171.4,66.8,171.3,68.2z"/>
	</g>
</g>
<path class="st2" d="M94.4,117.6"/>
<path class="st1" d="M0.3,0v70.9l3.2-1.3C30.3,59.3,59.9,54,91.4,54c53.6,0,94.8,15.6,95.2,15.7l3.2,1.2V0H0.3z M185.9,65.3
	c-9.2-3.2-47-15.2-94.5-15.2c-31.2,0-60.5,5.1-87.2,15.2V3.9h181.6V65.3z"/>
<g>
	<path class="st1" d="M7.7,58.3c0,0,1.4-1.3,2.1-2.7c2.9-14.9,5.8-29.1,8.8-42.7c-0.7-0.6-1.3-0.9-1.3-0.9c0-0.2,0-0.4,0-0.6
		c4-0.4,8-0.7,12-1c0,0.2,0,0.4,0,0.5c0,0-0.7,0.4-1.4,1.1c2.9,12.4,5.9,24.3,8.9,35.8c0.7,0.9,2.1,1.2,2.1,1.2c0,0.2,0,0.3,0,0.5
		c-3.5,0.7-6.9,1.5-10.4,2.5c0-0.2,0-0.4,0-0.5c0,0,0.7-0.5,1.3-1.3c-0.8-3.1-1.5-6.2-2.3-9.4c-3.8,0.1-6.1,0.6-9.9,2.4
		c-0.8,3.7-1.5,7.4-2.3,11.2c0.7,0.4,1.3,0.6,1.3,0.6c0,0.2,0,0.4,0,0.6c-3,1-5.9,2.1-8.9,3.3C7.7,58.7,7.7,58.5,7.7,58.3z
		 M26.3,36.3c-1.2-5.3-2.4-10.8-3.6-16.3c-0.2,0-0.3,0-0.5,0.1C21,26,19.8,31.9,18.6,38C21.4,37,23.5,36.6,26.3,36.3z"/>
	<path class="st1" d="M40.7,48.7c0,0,1-0.6,1.7-1.6c0-11.9,0-23.8,0-35.6c-0.7-0.7-1.7-1.2-1.7-1.2c0-0.2,0-0.3,0-0.5
		c3.5-0.1,7-0.3,10.6-0.3c0,0.2,0,0.3,0,0.5c0,0-1,0.5-1.7,1.2c0,10.5,0,21,0,31.5c3.6-0.5,7.2-0.9,10.7-1.3c1-0.7,1.7-1.5,1.7-1.5
		c0.2,0,0.4,0,0.5,0c-0.5,2.1-1,4.1-1.5,6.2c-6.8,0.8-13.6,1.8-20.4,3.2C40.7,49.1,40.7,48.9,40.7,48.7z"/>
	<path class="st1" d="M64.1,45.3c0,0,1.4-0.7,2.1-1.7c3-11.3,6-22.3,9-33.1c-0.7-0.5-1.3-0.8-1.3-0.8c0-0.2,0-0.3,0-0.5
		c4.1,0,8.1,0,12.2-0.1c0,0.2,0,0.3,0,0.5c0,0-0.7,0.3-1.4,0.8c3,10.7,6,21.3,9,31.9c0.7,0.9,2.1,1.5,2.1,1.5c0,0.2,0,0.3,0,0.5
		c-3.5,0-7,0-10.5,0.1c0-0.2,0-0.3,0-0.5c0,0,0.7-0.3,1.3-0.8c-0.8-2.8-1.6-5.6-2.3-8.3c-3.9-0.5-6.2-0.4-10.1,0.4
		c-0.8,2.9-1.6,5.8-2.3,8.7c0.7,0.5,1.3,0.7,1.3,0.7c0,0.2,0,0.3,0,0.5c-3,0.2-6.1,0.5-9.1,0.8C64.1,45.6,64.1,45.4,64.1,45.3z
		 M83.1,30.7c-1.2-4.7-2.4-9.3-3.7-14c-0.2,0-0.3,0-0.5,0c-1.2,4.7-2.4,9.5-3.7,14.3C78.2,30.6,80.2,30.5,83.1,30.7z"/>
	<path class="st1" d="M97.5,39.5c-0.9-0.1-1.5,0-1.5,0c-0.1-0.1-0.3-0.2-0.4-0.4c2.5-1.6,5.1-3.1,7.6-4.7c0.1,0.1,0.3,0.2,0.4,0.4
		c0,0-0.5,0.9-0.4,1.9c0.9,2.1,2.4,3.5,4.6,3.6c2.3,0.1,4-1.3,4-3.1c0-6.5-14.9-12.3-14.9-20c0-4.7,5.1-8.6,11.3-8.6
		c5.9,0,8.9,3.2,10.3,5.2c0.9,0.1,1.7,0,1.7,0c0.1,0.1,0.2,0.2,0.3,0.4c-2.6,1.6-5.1,3.1-7.7,4.7c-0.1-0.1-0.3-0.2-0.4-0.4
		c0,0,0.5-0.9,0.4-1.9c-0.9-2-2.4-3.5-4.6-3.5c-2.2,0-4,1.4-4,3.2c0,6.2,14.9,12.1,14.9,20.3c0,4.9-5,8.4-11.1,8.1
		C102.3,44.7,99,41.8,97.5,39.5z"/>
	<path class="st1" d="M123.4,45.1c0,0,1-0.3,1.7-1c0-11.1,0-22.2,0-33.2c-0.7-0.7-1.7-1.2-1.7-1.2c0-0.2,0-0.3,0-0.5
		c3.5,0,7.1,0.1,10.6,0.2c0,0.2,0,0.3,0,0.5c0,0-1,0.4-1.7,1.1c0,4.1,0,8.2,0,12.3c0.2,0,0.4,0,0.6,0c2.8-4.1,5.7-8.3,8.5-12.6
		c-0.5-0.4-1-0.6-1-0.6c0-0.2,0-0.3,0-0.5c2.9,0.1,5.8,0.2,8.7,0.3c0,0.2,0,0.3,0,0.5c0,0-1.4,0.4-2.4,1.3
		c-2.8,4.4-5.7,8.7-8.5,12.9c3.7,7.4,7.4,15.1,11,23.2c0.9,0.9,2.1,1.6,2.1,1.6c0,0.2,0,0.3,0,0.5c-3.4-0.7-6.8-1.4-10.2-1.9
		c0-0.2,0-0.3,0-0.5c0.1,0,0.5-0.1,1.1-0.5c-2.6-5.7-5.3-11.2-7.9-16.5c-0.7,0.9-1.3,1.9-2,2.8c0,3.9,0,7.8,0,11.7
		c0.7,0.8,1.7,1.4,1.7,1.4c0,0.2,0,0.3,0,0.5c-3.5-0.5-7.1-0.9-10.6-1.2C123.4,45.4,123.4,45.3,123.4,45.1z"/>
	<path class="st1" d="M150.5,49.1c0,0,1.4-0.3,2.1-1.2c3-11.5,5.9-23.4,8.9-35.8c-0.7-0.6-1.3-1-1.3-1c0-0.2,0-0.4,0-0.5
		c4,0.3,8,0.6,12,1c0,0.2,0,0.4,0,0.6c0,0-0.7,0.3-1.4,0.9c2.9,13.5,5.9,27.7,8.8,42.7c0.7,1.4,2.1,2.7,2.1,2.7c0,0.2,0,0.4,0,0.6
		c-3.4-1.4-6.8-2.6-10.3-3.7c0-0.2,0-0.4,0-0.6c0,0,0.7-0.2,1.3-0.6c-0.8-3.8-1.5-7.5-2.3-11.1c-3.8-1.7-6.1-2.2-9.9-2.3
		c-0.8,3.1-1.5,6.2-2.3,9.3c0.7,0.7,1.3,1.3,1.3,1.3c0,0.2,0,0.4,0,0.5c-3-0.8-6-1.5-9-2.1C150.5,49.5,150.5,49.3,150.5,49.1z
		 M169.3,37.7c-1.2-6-2.4-11.9-3.6-17.7c-0.2,0-0.3,0-0.5-0.1c-1.2,5.5-2.4,10.9-3.6,16.2C164.5,36.3,166.5,36.7,169.3,37.7z"/>
</g>
</svg>
